# xmcd CD database file
#
# Track frame offsets:
#	150
#	20931
#	42003
#	55731
#
# Disc length: 1038 seconds
#
# Revision: 0
# Processed by: cddbd v1.5.2PL0 Copyright (c) Steve Scherf et al.
# Submitted via: CDex 1.51
#
DISCID=2d040c04
DTITLE=黃建為 - 夏樹的期待
DYEAR=2007
DGENRE=New Age
TTITLE0=愛的shalala
TTITLE1=蝴蝶
TTITLE2=這個世界
TTITLE3=蝴蝶（鋼琴演唱版）
EXTD=YEAR: 2007
EXTT0=
EXTT1=
EXTT2=
EXTT3=
PLAYORDER=
